<?xml version="1.0" standalone="no"?>
<!DOCTYPE svg PUBLIC "-//W3C//DTD SVG 20010904//EN"
 "http://www.w3.org/TR/2001/REC-SVG-20010904/DTD/svg10.dtd">
<svg version="1.0" xmlns="http://www.w3.org/2000/svg"
 width="8582.000000pt" height="4000.000000pt" viewBox="0 0 8582.000000 4000.000000"
 preserveAspectRatio="xMidYMid meet">

<g transform="translate(0.000000,4000.000000) scale(0.100000,-0.100000)"
fill="#000000" stroke="none">
<path d="M40480 39990 c-1051 -7 -1343 -11 -2140 -31 -3503 -84 -5523 -405
-7275 -1154 -760 -325 -1435 -730 -2155 -1291 -224 -174 -321 -240 -481 -323
-334 -174 -667 -259 -1051 -268 -297 -8 -498 17 -756 92 -152 44 -237 79 -538
220 -3877 1824 -7638 2486 -11208 1974 -1991 -285 -3909 -947 -5661 -1954
-2154 -1237 -4037 -2966 -5561 -5106 -2085 -2929 -3364 -6504 -3608 -10084
-33 -480 -40 -716 -40 -1295 0 -577 7 -806 39 -1270 152 -2166 690 -4234 1590
-6108 1409 -2933 3653 -5329 6635 -7084 1848 -1088 4044 -1945 6376 -2488 466
-109 603 -145 732 -196 297 -117 527 -262 813 -511 621 -541 1202 -951 1918
-1353 1555 -872 3473 -1450 5476 -1650 605 -60 930 -75 1645 -75 719 0 1019
14 1650 75 1196 117 2467 392 3512 761 456 161 882 202 1315 129 250 -43 428
-102 733 -243 232 -106 341 -153 524 -222 1924 -722 4115 -492 5981 628 193
116 407 259 609 407 194 142 285 199 445 279 369 185 701 265 1111 266 567 1
1002 -151 1485 -519 250 -190 441 -323 670 -463 1521 -932 3283 -1271 4945
-951 85 16 256 54 380 83 327 79 404 89 665 89 272 -1 410 -20 710 -100 686
-182 1178 -248 1850 -248 424 0 686 19 1085 80 767 118 1524 361 2240 719 244
122 366 191 675 380 190 117 241 144 363 199 513 230 1088 282 1634 145 271
-68 495 -168 813 -366 521 -323 985 -546 1530 -733 873 -299 1877 -439 2815
-390 1990 104 3797 925 5051 2296 240 262 413 483 636 814 159 235 237 334
365 461 286 285 654 500 1049 614 140 41 221 56 489 96 2571 377 4929 1195
6967 2417 968 580 1825 1216 2664 1978 202 183 809 787 990 984 2288 2493
3789 5622 4373 9117 181 1081 260 2054 260 3193 0 1013 -53 1787 -190 2750
-599 4231 -2550 8024 -5514 10725 -2374 2162 -5315 3578 -8690 4184 -1081 194
-2239 307 -3335 327 -398 7 -3417 -12 -4095 -26 -1340 -28 -2270 -71 -3150
-146 -2521 -214 -4300 -713 -5845 -1637 -82 -49 -282 -177 -443 -284 -403
-268 -601 -367 -893 -447 -225 -61 -347 -78 -609 -83 -331 -7 -551 25 -834
119 -173 58 -281 108 -568 264 -1664 904 -3371 1529 -5167 1895 -856 174
-1648 274 -2631 330 -238 14 -2000 19 -3370 9z m3440 -3015 c25 -2 122 -10
215 -15 1123 -72 2380 -348 3625 -797 1286 -464 2656 -1141 4065 -2011 368
-227 666 -342 1035 -399 145 -22 520 -25 655 -4 347 51 654 155 925 313 141
82 245 156 430 308 574 470 1054 806 1603 1122 233 134 726 379 972 483 1153
489 2468 769 4225 900 1222 90 2668 119 5650 111 1098 -3 1829 -9 1935 -15
444 -28 736 -56 1085 -102 2456 -324 4752 -1310 6735 -2893 736 -587 1474
-1307 2096 -2046 2157 -2560 3486 -5818 3733 -9150 54 -722 54 -1522 0 -2235
-231 -3071 -1411 -5868 -3426 -8125 -235 -263 -403 -438 -882 -915 -517 -516
-788 -763 -1206 -1098 -2275 -1824 -5190 -2941 -8590 -3292 -271 -28 -379 -45
-521 -80 -598 -151 -1131 -534 -1468 -1058 -40 -61 -134 -215 -209 -342 -894
-1511 -1891 -2340 -3087 -2564 -244 -46 -350 -54 -820 -58 -470 -4 -600 2
-800 38 -718 129 -1527 572 -2465 1348 -134 112 -345 292 -515 441 -355 311
-686 489 -1097 589 -226 55 -327 66 -603 65 -224 -1 -265 -3 -396 -27 -342
-62 -643 -181 -923 -364 -123 -80 -184 -129 -428 -340 -489 -425 -859 -713
-1203 -939 -676 -443 -1267 -677 -1945 -770 -157 -21 -639 -30 -823 -15 -434
36 -839 124 -1347 291 -391 130 -685 173 -1009 150 -248 -18 -334 -35 -716
-145 -359 -103 -683 -170 -1015 -210 -183 -23 -649 -31 -833 -16 -616 53
-1185 253 -1723 607 -528 347 -1035 830 -1764 1679 -319 372 -529 544 -875
715 -247 123 -496 198 -775 236 -151 20 -452 23 -595 5 -526 -65 -1010 -286
-1392 -635 -31 -28 -162 -166 -292 -306 -737 -797 -1188 -1220 -1658 -1556
-587 -420 -1137 -642 -1751 -705 -186 -19 -611 -7 -812 24 -639 97 -1341 358
-2080 772 -298 168 -430 228 -634 289 -405 123 -841 137 -1256 40 -148 -34
-233 -63 -495 -169 -962 -389 -1902 -659 -2905 -834 -1427 -249 -2889 -277
-4260 -81 -1984 284 -3740 1023 -5115 2153 -162 134 -320 274 -535 475 -313
293 -592 468 -937 586 -179 61 -314 89 -598 126 -600 77 -1111 173 -1684 315
-3107 772 -5977 2588 -8081 5112 -1990 2388 -3168 5236 -3384 8183 -47 637
-45 1481 4 2195 190 2738 1012 5212 2441 7352 2350 3518 6207 5857 10579 6418
348 44 726 79 1155 105 285 18 1109 24 1435 11 2146 -87 4129 -562 6115 -1466
229 -104 864 -427 1105 -562 237 -133 391 -223 670 -393 216 -131 312 -180
470 -243 708 -279 1516 -203 2185 207 141 87 270 186 416 319 251 230 388 353
534 477 1779 1519 3442 2123 6395 2325 792 53 1955 90 3140 98 591 5 4253 -2
4300 -8z"/>
<path d="M39754 34630 c-3651 -41 -5383 -246 -6619 -785 -749 -326 -1301 -800
-1695 -1455 -529 -881 -819 -2163 -944 -4175 -66 -1065 -89 -2072 -102 -4475
l-8 -1325 -17 185 c-196 2059 -893 4025 -2037 5746 -805 1211 -1786 2250
-2947 3120 -976 732 -2073 1327 -3215 1744 -1794 655 -3720 890 -5640 690
-3307 -346 -6336 -1995 -8451 -4600 -579 -713 -1076 -1489 -1489 -2325 -296
-598 -519 -1146 -705 -1730 -372 -1169 -564 -2308 -594 -3525 -34 -1349 140
-2662 519 -3927 733 -2449 2193 -4610 4200 -6218 1721 -1378 3785 -2281 5963
-2609 l159 -23 -5 21 c-2 11 -30 104 -61 206 -181 596 -296 1217 -348 1890
-17 219 -17 974 0 1180 50 606 143 1181 253 1558 229 787 756 1475 1476 1925
477 299 1000 481 1593 554 180 22 666 25 835 5 601 -71 1083 -242 1545 -548
218 -144 399 -298 605 -514 467 -492 807 -1178 934 -1885 45 -256 55 -378 56
-690 0 -312 -10 -436 -56 -684 -15 -81 -19 -151 -19 -307 0 -185 3 -216 30
-356 17 -84 37 -173 45 -198 21 -65 140 -181 215 -210 30 -12 107 -49 170 -82
63 -34 135 -72 160 -84 95 -49 510 -144 629 -144 l76 0 165 101 c582 357 1170
788 1675 1229 429 375 908 856 1264 1270 43 50 400 573 876 1285 859 1284 834
1245 1030 1670 614 1336 984 2745 1108 4215 9 114 17 -295 22 -1155 5 -1007
14 -1488 40 -2220 18 -495 31 -734 38 -741 3 -3 38 -1 79 5 40 6 148 15 239
20 1206 65 2421 -532 3151 -1546 93 -129 184 -279 266 -440 42 -84 79 -153 82
-153 3 0 52 39 109 86 1006 829 2238 1443 3556 1773 1030 257 2124 368 3370
340 1966 -43 3613 -413 5055 -1134 651 -325 1197 -703 1712 -1184 49 -44 92
-81 97 -81 5 0 17 24 27 53 51 156 161 405 255 579 179 329 392 611 669 889
498 499 1076 831 1755 1009 587 153 1174 169 1770 48 391 -79 863 -262 1197
-463 50 -30 92 -54 93 -53 16 21 154 285 262 503 689 1388 1101 2839 1252
4405 l19 195 1 -515 c2 -766 19 -2338 31 -2800 16 -641 45 -1418 53 -1426 1
-1 62 17 134 42 247 81 543 144 828 176 98 11 1200 13 6110 13 5723 0 5996 -1
6135 -18 300 -38 558 -96 820 -186 1248 -426 2199 -1467 2514 -2750 115 -468
140 -984 70 -1476 -118 -832 -528 -1633 -1138 -2223 -53 -52 -89 -91 -79 -88
10 3 101 26 202 51 507 127 1064 308 1576 513 3257 1306 5843 3944 7083 7229
731 1933 973 4059 697 6120 -429 3205 -2077 6112 -4620 8148 -1879 1504 -4163
2437 -6560 2680 -632 64 -857 69 -2900 62 -2373 -8 -3345 -29 -4415 -92 -2222
-132 -3551 -448 -4455 -1059 -1096 -741 -1652 -1971 -1889 -4186 -129 -1204
-175 -2423 -192 -5135 l-8 -1110 -18 195 c-184 2002 -852 3929 -1950 5635
-661 1026 -1499 1979 -2443 2780 -1894 1607 -4225 2615 -6690 2894 -180 21
-415 41 -705 62 -190 14 -2920 20 -3936 9z"/>
<path d="M51714 15290 c-802 -57 -1522 -471 -1973 -1135 -208 -307 -334 -620
-413 -1028 l-22 -112 -6 -1990 c-3 -1094 -6 -1988 -8 -1985 -1 3 -16 84 -32
180 -291 1683 -1140 3164 -2375 4142 -351 277 -665 475 -1095 687 -1304 645
-2772 960 -4605 988 -1519 23 -2825 -189 -3945 -639 -1299 -523 -2350 -1314
-3100 -2333 -99 -134 -261 -381 -350 -535 -92 -158 -261 -496 -331 -662 -30
-70 -55 -126 -56 -124 -1 1 5 87 14 192 23 271 23 916 0 1194 -42 491 -135
1015 -229 1290 -190 558 -636 1044 -1213 1321 -224 108 -410 168 -654 211
-183 32 -501 32 -685 -1 -469 -83 -944 -337 -1289 -688 -172 -175 -293 -337
-402 -538 -263 -481 -342 -1077 -219 -1644 34 -159 48 -391 40 -696 -6 -253
-19 -371 -57 -505 -33 -120 -79 -274 -95 -325 -26 -80 -110 -251 -135 -276
-13 -13 -28 -31 -34 -40 -98 -163 -210 -297 -240 -286 -7 3 -23 -6 -36 -19
-22 -23 -208 -139 -459 -287 -98 -57 -224 -113 -282 -123 -18 -4 -89 -23 -158
-44 -200 -60 -380 -106 -595 -150 -174 -37 -225 -43 -395 -50 -107 -5 -285
-18 -395 -30 -326 -33 -706 -27 -1285 21 -74 6 -238 12 -365 13 -223 2 -235 4
-405 40 -210 44 -471 111 -635 162 -66 20 -140 43 -165 50 -103 29 -257 95
-319 137 -61 41 -178 113 -277 169 -78 44 -209 137 -243 172 -19 19 -35 45
-36 56 -1 11 -30 53 -65 92 -129 143 -250 375 -316 603 -70 242 -72 251 -95
385 -19 110 -21 164 -21 455 0 340 5 414 42 620 40 230 43 565 5 805 -41 263
-117 505 -234 745 -333 680 -887 1097 -1611 1212 -163 26 -596 25 -760 -1
-835 -131 -1515 -623 -1809 -1308 -63 -147 -91 -238 -136 -437 -160 -717 -210
-1528 -140 -2276 187 -1997 1142 -3770 2620 -4860 722 -533 1665 -953 2741
-1219 682 -169 1370 -265 2259 -318 278 -16 1181 -16 1445 0 1192 74 2113 261
2990 607 1675 661 2947 1773 3666 3205 51 102 120 247 153 323 55 129 81 179
68 132 -35 -127 -45 -1100 -14 -1425 36 -374 80 -661 148 -964 77 -339 176
-568 357 -821 445 -621 1197 -1015 1941 -1015 329 0 637 79 976 250 484 244
855 615 1085 1085 240 490 298 1013 177 1585 -30 141 -39 280 -38 610 1 280
14 415 55 560 14 47 43 150 66 230 44 156 118 324 167 380 17 19 64 87 106
150 80 123 125 172 156 175 10 1 43 19 73 42 56 43 475 295 543 326 65 31 165
67 194 71 14 2 105 26 201 54 379 111 729 182 892 182 60 0 225 12 366 27 350
36 656 36 1157 -2 198 -15 457 -28 575 -29 211 -2 219 -3 410 -44 489 -106
997 -265 1081 -338 21 -18 270 -165 285 -168 5 -1 37 -21 70 -44 32 -24 87
-63 121 -87 64 -46 91 -77 98 -114 2 -12 36 -56 74 -99 39 -42 71 -80 71 -84
0 -4 15 -31 34 -60 18 -29 58 -100 89 -158 70 -132 163 -435 201 -658 27 -151
27 -158 23 -525 -4 -350 -6 -380 -30 -512 -59 -316 -61 -585 -6 -913 40 -239
112 -460 229 -697 126 -256 267 -451 461 -641 314 -305 691 -489 1144 -559
166 -26 486 -31 665 -11 307 36 583 116 855 250 331 164 582 364 788 628 255
327 372 641 467 1253 12 77 25 147 28 155 6 16 5 20 23 -125 53 -441 251 -908
538 -1270 124 -157 341 -364 516 -492 261 -191 628 -355 955 -427 208 -46 359
-59 620 -53 255 5 380 21 591 76 923 239 1646 977 1867 1906 72 301 66 64 72
2855 l5 2514 34 -89 c18 -50 64 -152 101 -227 361 -727 1050 -1247 1844 -1393
240 -43 309 -45 1951 -45 l1564 0 4 -1637 c3 -1513 4 -1646 20 -1743 101 -597
332 -1055 737 -1460 397 -398 852 -633 1415 -731 172 -30 539 -38 725 -15 868
106 1621 637 2009 1417 118 236 189 448 239 714 l26 140 3 1657 4 1657 1647 4
c1630 3 1648 3 1777 24 542 90 994 306 1380 661 451 415 727 951 817 1587 20
137 16 533 -5 675 -72 462 -229 842 -501 1205 -98 130 -326 366 -446 461 -373
294 -798 476 -1290 551 -108 16 -441 18 -5835 21 -3875 2 -5776 0 -5895 -7
-200 -12 -364 -37 -530 -80 -879 -229 -1581 -917 -1834 -1798 -19 -65 -36
-111 -39 -103 -3 8 -17 57 -31 108 -86 310 -260 646 -472 912 -162 204 -431
440 -664 585 -222 137 -526 260 -790 319 -219 48 -519 71 -736 56z"/>
</g>
</svg>
