<?xml version="1.0" standalone="no"?>
<!DOCTYPE svg PUBLIC "-//W3C//DTD SVG 20010904//EN"
 "http://www.w3.org/TR/2001/REC-SVG-20010904/DTD/svg10.dtd">
<svg version="1.0" xmlns="http://www.w3.org/2000/svg"
 width="7504.000000pt" height="4000.000000pt" viewBox="0 0 7504.000000 4000.000000"
 preserveAspectRatio="xMidYMid meet">

<g transform="translate(0.000000,4000.000000) scale(0.100000,-0.100000)"
fill="#000000" stroke="none">
<path d="M35215 39989 c-1776 -13 -2835 -48 -3870 -129 -2277 -179 -3842 -609
-5202 -1431 -287 -174 -533 -345 -858 -598 -196 -152 -300 -221 -443 -295
-505 -258 -1096 -302 -1637 -122 -71 24 -260 104 -420 179 -1616 753 -3097
1250 -4620 1551 -1079 212 -2034 307 -3095 307 -687 0 -1212 -32 -1832 -111
-2586 -329 -4993 -1361 -7068 -3031 -730 -587 -1433 -1271 -2065 -2009 -2909
-3394 -4415 -8015 -4049 -12430 207 -2509 1017 -4865 2359 -6860 1809 -2691
4527 -4707 8020 -5950 790 -281 1690 -541 2565 -740 390 -89 613 -178 859
-341 115 -76 173 -123 392 -313 837 -726 1919 -1357 3059 -1783 2084 -779
4461 -1020 6795 -688 817 116 1561 291 2360 555 346 115 460 144 640 165 316
37 628 6 930 -92 101 -33 160 -57 370 -153 1099 -505 2256 -655 3453 -449 608
104 1151 283 1727 569 379 188 664 361 988 599 173 127 272 189 417 262 572
285 1234 303 1803 49 152 -68 254 -132 472 -294 314 -234 488 -349 755 -501
791 -449 1643 -718 2545 -802 251 -23 776 -23 1015 1 324 32 549 69 870 146
316 76 374 84 620 84 246 0 361 -16 617 -85 374 -101 646 -152 1043 -196 231
-25 908 -25 1150 0 783 82 1464 269 2170 597 246 114 445 223 800 439 358 219
689 321 1090 338 456 18 869 -100 1306 -374 413 -260 786 -444 1214 -601 1706
-624 3642 -512 5275 305 588 294 1089 656 1561 1127 301 301 501 545 753 919
170 252 286 383 471 531 238 190 538 336 841 410 57 13 226 43 374 66 1272
193 2430 488 3535 900 2519 940 4651 2454 6296 4470 2504 3069 3738 7172 3423
11385 -311 4174 -2140 7999 -5069 10601 -2520 2239 -5733 3527 -9450 3788
-568 40 -614 41 -2010 39 -2322 -4 -3494 -29 -4605 -98 -2239 -140 -3779 -479
-5120 -1129 -350 -170 -665 -352 -1047 -607 -266 -177 -356 -228 -514 -295
-252 -106 -482 -154 -770 -161 -297 -8 -499 21 -759 109 -146 49 -260 102
-515 242 -1796 982 -3843 1633 -5820 1850 -892 98 -1283 106 -4095 85z m3265
-2639 c528 -35 957 -92 1480 -196 1607 -321 3346 -1047 5190 -2167 317 -193
366 -221 459 -265 311 -145 621 -209 971 -199 338 9 612 78 911 227 185 93
271 151 514 351 1469 1204 2868 1797 4860 2059 1280 168 2695 215 6090 205
1382 -4 1583 -8 1970 -41 2492 -209 4793 -1170 6742 -2816 284 -240 467 -410
798 -742 349 -349 537 -554 808 -879 916 -1096 1687 -2387 2227 -3727 846
-2101 1176 -4312 965 -6470 -97 -991 -323 -2000 -652 -2915 -522 -1450 -1286
-2730 -2328 -3900 -170 -192 -862 -901 -1083 -1109 -1451 -1373 -3221 -2360
-5317 -2963 -919 -264 -1839 -440 -2902 -553 -158 -17 -337 -42 -398 -54 -572
-122 -1092 -490 -1397 -991 -30 -49 -101 -169 -158 -265 -474 -798 -994 -1388
-1545 -1754 -446 -296 -888 -458 -1397 -511 -207 -21 -879 -21 -1045 0 -613
80 -1269 404 -2041 1007 -196 154 -388 314 -622 518 -267 234 -385 316 -615
426 -411 196 -858 255 -1313 173 -200 -36 -378 -96 -572 -193 -199 -100 -286
-163 -629 -458 -283 -244 -463 -390 -681 -553 -1283 -957 -2410 -1152 -3880
-670 -339 111 -459 135 -726 142 -277 8 -455 -16 -728 -98 -541 -163 -968
-233 -1421 -233 -759 0 -1370 211 -2020 699 -377 283 -735 637 -1281 1265
-121 140 -247 279 -280 309 -324 297 -706 484 -1134 556 -135 23 -422 31 -561
15 -345 -38 -681 -156 -959 -338 -186 -121 -307 -232 -600 -552 -615 -670
-1081 -1094 -1520 -1386 -467 -309 -906 -474 -1394 -524 -166 -17 -530 -7
-708 19 -549 81 -1160 307 -1808 667 -316 175 -447 232 -677 290 -356 90 -756
82 -1103 -23 -63 -19 -216 -75 -340 -125 -1899 -764 -3932 -1053 -5900 -837
-2047 224 -3845 1000 -5168 2232 -348 324 -504 437 -768 555 -205 92 -380 136
-694 177 -977 126 -1881 347 -2790 680 -2298 842 -4363 2334 -5925 4280 -1117
1391 -1955 3031 -2400 4690 -216 807 -335 1539 -397 2435 -16 236 -16 1157 1
1450 65 1177 229 2174 526 3205 1127 3919 4037 6994 7965 8418 2377 862 5014
1043 7515 516 1589 -335 3077 -929 4504 -1796 232 -141 354 -205 495 -258 455
-170 953 -177 1423 -20 313 104 573 261 838 506 505 467 908 792 1335 1076
913 608 1875 974 3099 1178 1018 169 2190 245 4131 264 994 11 3868 4 4060 -9z"/>
<path d="M34415 35299 c-1050 -15 -1881 -47 -2560 -99 -2051 -158 -3194 -534
-3931 -1292 -150 -154 -230 -255 -352 -438 -548 -822 -821 -2038 -927 -4125
-44 -873 -56 -1480 -62 -3198 -3 -851 -7 -1546 -8 -1545 -2 2 -11 80 -20 173
-161 1661 -674 3217 -1528 4635 -1065 1766 -2618 3207 -4462 4140 -2284 1155
-4903 1471 -7425 896 -1271 -290 -2498 -818 -3600 -1551 -1164 -774 -2156
-1743 -2952 -2885 -1612 -2312 -2268 -5155 -1837 -7965 241 -1573 833 -3091
1724 -4420 1134 -1693 2712 -3037 4560 -3885 906 -417 1884 -711 2867 -864
232 -37 212 -46 171 82 -335 1054 -428 2220 -267 3342 35 240 87 511 133 693
240 940 951 1714 1902 2070 713 267 1527 285 2222 48 644 -219 1200 -668 1569
-1266 430 -698 594 -1574 442 -2365 -9 -49 -14 -141 -14 -264 0 -170 3 -202
31 -339 16 -82 36 -162 44 -177 27 -51 135 -135 225 -174 47 -20 123 -59 170
-86 129 -74 460 -160 617 -160 l76 0 126 77 c887 539 1759 1267 2454 2048
l179 200 702 1050 c386 578 714 1070 728 1095 45 79 218 449 308 660 425 995
701 2044 815 3100 14 129 29 267 34 305 5 45 9 -140 10 -515 1 -653 15 -1582
31 -2120 13 -423 37 -950 44 -957 3 -3 53 1 113 8 152 19 515 16 678 -5 478
-62 916 -219 1325 -475 497 -311 930 -786 1171 -1286 24 -49 45 -92 46 -94 3
-4 19 9 174 135 483 393 1059 744 1678 1021 776 348 1613 575 2536 687 508 62
843 80 1460 80 506 0 712 -7 1115 -40 1370 -111 2556 -422 3605 -947 586 -293
994 -575 1536 -1065 l56 -51 53 142 c188 499 517 975 923 1334 471 416 1009
679 1632 797 226 43 333 51 635 51 298 -1 420 -13 680 -66 346 -71 750 -229
1049 -412 35 -21 67 -35 71 -30 4 4 57 103 118 218 660 1262 1057 2602 1201
4050 l19 190 1 -605 c3 -1359 34 -2960 67 -3457 l6 -93 36 16 c122 51 433 127
682 167 l135 22 5230 3 c3825 2 5268 0 5370 -8 1354 -109 2521 -1038 2944
-2343 329 -1016 149 -2152 -477 -3012 -116 -159 -196 -253 -343 -402 l-131
-132 64 15 c249 58 671 181 973 284 2589 886 4765 2721 6090 5135 1152 2102
1580 4566 1210 6970 -239 1550 -824 3054 -1700 4370 -301 452 -601 842 -968
1255 -177 199 -726 743 -927 919 -1901 1663 -4210 2600 -6730 2731 -440 23
-3630 9 -4620 -20 -2004 -59 -3195 -206 -4095 -505 -627 -208 -1066 -465
-1445 -845 -683 -685 -1046 -1716 -1219 -3470 -100 -1001 -145 -2399 -152
-4740 -1 -294 -4 -519 -6 -500 -2 19 -13 125 -24 235 -175 1755 -788 3460
-1778 4950 -1365 2052 -3386 3594 -5716 4359 -749 246 -1526 411 -2300 490
-489 50 -451 49 -2155 51 -883 1 -1843 -1 -2135 -6z"/>
<path d="M45200 18393 c-175 -13 -415 -64 -585 -123 -121 -42 -370 -165 -480
-237 -531 -348 -893 -900 -1000 -1528 -31 -183 -35 -375 -36 -1960 -1 -880 -4
-1589 -6 -1575 -124 737 -325 1354 -635 1950 -491 945 -1221 1716 -2107 2224
-504 290 -1161 551 -1801 715 -895 231 -1962 340 -3034 310 -1695 -46 -3021
-427 -4191 -1204 -674 -447 -1206 -974 -1628 -1615 -162 -247 -336 -571 -442
-825 -21 -49 -40 -93 -44 -97 -3 -4 -1 55 6 130 59 694 -10 1537 -173 2124
-53 189 -164 411 -295 588 -81 108 -259 292 -369 380 -318 253 -704 416 -1090
461 -147 16 -405 7 -544 -21 -319 -63 -670 -233 -931 -452 -415 -347 -669
-810 -734 -1338 -26 -205 -9 -521 40 -728 47 -204 44 -769 -5 -985 -14 -59
-28 -112 -31 -118 -4 -6 -19 -56 -35 -112 -41 -150 -107 -304 -148 -344 -10
-10 -49 -64 -86 -120 -66 -99 -139 -179 -154 -169 -5 3 -27 -11 -51 -29 -43
-34 -384 -241 -464 -282 -95 -48 -531 -171 -832 -233 -115 -25 -192 -34 -330
-40 -99 -5 -245 -17 -325 -26 -216 -26 -643 -24 -1005 6 -166 13 -351 22 -455
21 -163 -1 -187 2 -350 35 -402 81 -861 221 -974 297 -65 44 -249 152 -258
152 -4 0 -28 16 -55 36 -26 19 -61 43 -77 53 -50 32 -116 98 -116 117 0 10
-27 49 -60 86 -157 177 -291 497 -349 834 -39 229 -35 712 9 944 39 206 41
537 5 745 -135 782 -618 1388 -1281 1610 -346 115 -787 132 -1166 45 -687
-159 -1211 -592 -1444 -1195 -128 -333 -234 -1090 -234 -1681 -1 -1907 825
-3693 2205 -4770 814 -635 1937 -1086 3230 -1298 1209 -198 2637 -194 3755 10
833 153 1601 430 2300 830 699 400 1305 927 1772 1539 244 321 469 702 627
1065 63 144 92 199 78 150 -29 -105 -41 -877 -18 -1165 37 -460 128 -969 216
-1205 222 -596 783 -1085 1439 -1255 285 -74 588 -82 866 -23 198 42 511 178
703 307 741 495 1074 1347 872 2231 -8 33 -19 148 -25 255 -17 315 7 645 56
782 9 24 31 98 50 166 37 133 89 257 132 312 16 19 59 82 97 139 72 107 138
176 156 165 6 -3 25 7 42 24 40 37 429 268 522 309 74 33 104 43 138 48 12 2
78 19 147 39 336 99 662 166 805 166 55 0 190 10 300 22 276 31 650 30 1050
-1 160 -12 378 -24 485 -25 181 -3 207 -6 365 -40 400 -86 821 -217 930 -290
57 -38 254 -156 260 -156 2 0 39 -23 82 -52 94 -62 163 -126 163 -150 0 -9 25
-46 56 -80 65 -72 82 -97 159 -238 60 -108 78 -154 127 -320 84 -289 92 -352
91 -720 0 -299 -4 -359 -39 -535 -24 -127 -30 -481 -10 -635 67 -508 292 -966
634 -1291 348 -331 791 -499 1317 -499 739 0 1425 354 1788 921 64 100 148
278 187 398 37 114 92 363 129 591 20 127 17 131 46 -65 32 -220 102 -440 206
-648 113 -226 252 -420 429 -597 358 -359 832 -589 1338 -649 117 -14 410 -15
522 -1 519 64 976 285 1340 650 356 356 561 766 648 1295 14 90 16 315 20
2285 l3 2185 43 -105 c273 -672 842 -1173 1529 -1349 272 -70 147 -65 1767
-71 l1465 -5 6 -1455 c4 -1052 9 -1472 17 -1515 44 -223 76 -340 133 -486 275
-707 900 -1238 1641 -1395 223 -47 532 -58 766 -29 908 117 1669 790 1896
1677 74 288 70 183 73 1776 l4 1432 1405 0 c915 0 1439 4 1502 11 542 58 1081
334 1435 734 317 358 504 769 568 1245 19 140 16 440 -5 585 -75 506 -306 961
-667 1310 -349 338 -767 545 -1259 622 -110 17 -351 18 -5245 18 -5525 0
-5173 3 -5422 -51 -772 -169 -1412 -748 -1656 -1499 -20 -60 -41 -130 -48
-155 l-11 -45 -28 100 c-131 465 -418 889 -802 1185 -431 334 -1002 504 -1548
463z"/>
<path d="M19664 3649 c-553 -25 -1003 -126 -1274 -284 -215 -126 -363 -312
-422 -530 -29 -109 -32 -412 -5 -520 40 -160 108 -285 217 -396 198 -202 517
-335 955 -398 206 -30 350 -40 750 -51 667 -18 827 -30 1001 -76 198 -51 264
-113 264 -250 0 -82 -19 -133 -66 -180 -105 -105 -285 -147 -694 -160 -467
-15 -761 57 -912 225 -56 63 -85 119 -102 203 l-13 63 -738 3 -738 2 6 -122
c23 -508 343 -859 942 -1034 368 -107 734 -144 1434 -144 683 0 1036 33 1426
131 359 91 611 241 776 462 76 103 122 198 151 312 20 81 23 113 22 320 0 268
-11 324 -90 483 -135 269 -414 437 -883 531 -327 66 -537 82 -1341 101 -432
10 -558 20 -698 56 -129 32 -191 67 -219 124 -40 79 -27 186 29 238 138 126
948 165 1293 61 185 -56 289 -144 324 -277 l12 -42 731 0 731 0 -6 103 c-34
584 -519 917 -1484 1022 -300 32 -953 44 -1379 24z"/>
<path d="M54070 3650 c-543 -36 -1001 -137 -1316 -290 -212 -102 -436 -269
-556 -413 -152 -183 -261 -413 -312 -659 -43 -207 -46 -633 -7 -858 54 -308
199 -592 406 -795 385 -379 957 -575 1825 -626 248 -15 859 -6 1070 16 311 31
626 94 855 170 206 69 474 212 615 329 71 59 208 196 251 252 135 175 246 446
284 693 34 218 28 618 -11 810 -55 269 -186 530 -356 707 -282 294 -634 471
-1133 572 -162 33 -384 66 -560 83 -142 13 -892 20 -1055 9z m746 -951 c224
-22 442 -80 596 -161 157 -81 309 -257 362 -416 55 -164 55 -397 0 -560 -68
-205 -243 -390 -449 -475 -220 -91 -459 -131 -795 -131 -360 0 -612 47 -835
154 -191 92 -347 267 -412 465 -23 70 -27 101 -31 242 -6 234 22 348 123 488
159 224 443 355 850 394 132 12 465 13 591 0z"/>
<path d="M25160 3110 l0 -480 760 0 760 0 0 -1280 0 -1280 675 0 675 0 0 1280
0 1280 760 0 760 0 0 480 0 480 -2195 0 -2195 0 0 -480z"/>
<path d="M32280 2681 c0 -1066 6 -1159 86 -1401 87 -262 232 -499 418 -686
183 -182 363 -291 660 -398 373 -136 689 -181 1266 -181 475 0 718 26 1020
109 445 122 746 296 966 558 104 124 162 215 245 383 102 206 153 380 178 617
7 61 11 434 11 1003 l0 905 -670 0 -670 0 0 -757 c0 -792 -7 -978 -39 -1105
-42 -164 -149 -343 -260 -434 -110 -91 -269 -161 -456 -200 -130 -27 -506 -27
-650 0 -252 47 -446 150 -555 294 -58 77 -122 197 -151 280 -47 135 -49 184
-49 1080 l0 842 -675 0 -675 0 0 -909z"/>
<path d="M39970 1830 l0 -1760 1369 0 c832 0 1430 4 1523 10 443 30 841 111
1158 236 234 93 393 197 566 369 226 225 341 442 401 758 26 137 26 682 0 812
-60 292 -185 525 -397 735 -256 253 -604 413 -1116 514 -424 83 -504 86 -2111
86 l-1393 0 0 -1760z m2625 830 c500 -43 814 -197 946 -465 49 -100 67 -174
75 -295 29 -443 -206 -723 -706 -839 -209 -49 -278 -53 -957 -58 l-643 -5 0
836 0 836 583 0 c320 0 636 -5 702 -10z"/>
<path d="M47760 1830 l0 -1760 670 0 670 0 0 1760 0 1760 -670 0 -670 0 0
-1760z"/>
</g>
</svg>
